<svg xmlns="http://www.w3.org/2000/svg" version="1.1" xmlns:xlink="http://www.w3.org/1999/xlink" width="1500" height="1500" viewBox="0 0 1500 1500"><rect width="1500" height="1500" fill="#ffffff"></rect><g transform="matrix(0.6666666666666666,0,0,0.6666666666666666,249.27974073271434,430.3053763440861)"><svg viewBox="0 0 389 248" data-background-color="#ffffff" preserveAspectRatio="xMidYMid meet" height="956" width="1500" xmlns="http://www.w3.org/2000/svg" xmlns:xlink="http://www.w3.org/1999/xlink"><g id="tight-bounds" transform="matrix(1,0,0,1,0.2801808549741338,0.4000000000000057)"><svg viewBox="0 0 388.43963829005173 247.2" height="247.2" width="388.43963829005173"><g><svg viewBox="0 0 395.52 251.70588776779846" height="247.2" width="388.43963829005173"><g transform="matrix(1,0,0,1,0,153.1656617809455)"><svg viewBox="0 0 395.52 98.54022598685296" height="98.54022598685296" width="395.52"><g id="textblocktransform"><svg viewBox="0 0 395.52 98.54022598685296" height="98.54022598685296" width="395.52" id="textblock"><g><svg viewBox="0 0 395.52 71.93899196493791" height="71.93899196493791" width="395.52"><g transform="matrix(1,0,0,1,0,0)"><svg width="395.52" viewBox="1.5 -36.85 205.34 37.35" height="71.93899196493791" data-palette-color="#6b7280"><path d="M16.95 0L13.1 0 13.1-31.65 1.5-31.65 1.5-35 28.5-35 28.5-31.65 16.95-31.65 16.95 0ZM45.6 0.5L45.6 0.5Q42.1 0.5 39.3-1.18 36.5-2.85 34.87-5.73 33.25-8.6 33.25-12.2L33.25-12.2Q33.25-15.8 34.8-18.65 36.35-21.5 39.02-23.15 41.7-24.8 45-24.8L45-24.8Q48.45-24.8 51.15-23.18 53.85-21.55 55.4-18.78 56.95-16 56.95-12.5L56.95-12.5 56.95-11.4 36.8-11.4Q37-8.9 38.2-6.93 39.4-4.95 41.37-3.83 43.35-2.7 45.75-2.7L45.75-2.7Q47.9-2.7 49.77-3.53 51.65-4.35 52.9-5.8L52.9-5.8 55.45-3.55Q53.5-1.55 51-0.53 48.5 0.5 45.6 0.5ZM36.9-14.1L36.9-14.1 53.35-14.1Q53.05-16.3 51.87-18 50.7-19.7 48.92-20.68 47.15-21.65 44.95-21.65L44.95-21.65Q42.9-21.65 41.2-20.7 39.5-19.75 38.37-18.05 37.25-16.35 36.9-14.1ZM75.4 0.5L75.4 0.5Q71.95 0.5 69.17-1.18 66.4-2.85 64.77-5.7 63.15-8.55 63.15-12.15L63.15-12.15Q63.15-15.75 64.77-18.63 66.4-21.5 69.17-23.15 71.95-24.8 75.4-24.8L75.4-24.8Q78.8-24.8 81.55-23.3 84.3-21.8 85.9-19.25L85.9-19.25 82.95-17.4Q81.8-19.3 79.82-20.43 77.84-21.55 75.4-21.55L75.4-21.55Q72.9-21.55 70.95-20.33 69-19.1 67.87-17 66.75-14.9 66.75-12.15L66.75-12.15Q66.75-9.45 67.87-7.33 69-5.2 70.95-3.98 72.9-2.75 75.4-2.75L75.4-2.75Q77.84-2.75 79.82-3.88 81.8-5 82.95-6.9L82.95-6.9 85.9-5.05Q84.3-2.5 81.55-1 78.8 0.5 75.4 0.5ZM98.59 0L94.94 0 94.94-36.1 98.59-36.85 98.59-20.45Q101.39-24.8 106.34-24.8L106.34-24.8Q108.99-24.8 110.97-23.68 112.94-22.55 114.07-20.53 115.19-18.5 115.19-15.8L115.19-15.8 115.19 0 111.54 0 111.54-14.75Q111.54-18 109.77-19.88 107.99-21.75 104.99-21.75L104.99-21.75Q102.99-21.75 101.34-20.8 99.69-19.85 98.59-18L98.59-18 98.59 0ZM128.59 0L124.74 0 124.74-35 136.19-35Q139.59-35 142.09-33.73 144.59-32.45 145.97-30.13 147.34-27.8 147.34-24.65L147.34-24.65Q147.34-21.55 145.97-19.2 144.59-16.85 142.09-15.58 139.59-14.3 136.19-14.3L136.19-14.3 128.59-14.3 128.59 0ZM128.59-31.65L128.59-17.65 135.74-17.65Q139.39-17.65 141.44-19.53 143.49-21.4 143.49-24.65L143.49-24.65Q143.49-27.9 141.44-29.78 139.39-31.65 135.74-31.65L135.74-31.65 128.59-31.65ZM172.09 0L154.64 0 154.64-3 161.34-3 161.34-21.4 154.64-21.4 154.64-24.4 164.99-24.4 164.99-18.95Q166.09-21.75 168.29-23.28 170.49-24.8 173.39-24.8L173.39-24.8Q174.54-24.8 175.44-24.63 176.34-24.45 177.59-24.05L177.59-24.05 177.59-20.7Q176.34-21.1 175.21-21.35 174.09-21.6 172.99-21.6L172.99-21.6Q170.29-21.6 168.19-20.2 166.09-18.8 164.99-16.2L164.99-16.2 164.99-3 172.09-3 172.09 0ZM194.99 0.5L194.99 0.5Q191.64 0.5 188.96-1.18 186.29-2.85 184.71-5.7 183.14-8.55 183.14-12.15L183.14-12.15Q183.14-15.75 184.71-18.63 186.29-21.5 188.96-23.15 191.64-24.8 194.99-24.8L194.99-24.8Q198.34-24.8 201.01-23.15 203.69-21.5 205.26-18.63 206.84-15.75 206.84-12.15L206.84-12.15Q206.84-8.55 205.26-5.7 203.69-2.85 201.01-1.18 198.34 0.5 194.99 0.5ZM194.99-2.75L194.99-2.75Q197.39-2.75 199.24-3.98 201.09-5.2 202.16-7.33 203.24-9.45 203.24-12.2L203.24-12.2Q203.24-14.9 202.16-17 201.09-19.1 199.24-20.33 197.39-21.55 194.99-21.55L194.99-21.55Q192.59-21.55 190.74-20.33 188.89-19.1 187.81-17 186.74-14.9 186.74-12.2L186.74-12.2Q186.74-9.45 187.81-7.33 188.89-5.2 190.74-3.98 192.59-2.75 194.99-2.75Z" opacity="1" transform="matrix(1,0,0,1,0,0)" fill="#6b7280" class="wordmark-text-0" data-fill-palette-color="primary" id="text-0"></path></svg></g></svg></g><g transform="matrix(1,0,0,1,0,88.9220614320526)"><svg viewBox="0 0 395.52 9.61816455480037" height="9.61816455480037" width="395.52"><g transform="matrix(1,0,0,1,0,0)"><svg width="395.52" viewBox="3.33 -36.3 1524.88 37.08" height="9.61816455480037" data-palette-color="#97978d"><path d="M26.25 0.78L26.25 0.78Q21.88 0.78 17.73-0.34 13.59-1.46 10.39-3.78 7.19-6.09 5.26-9.58 3.33-13.07 3.33-17.76L3.33-17.76Q3.33-22.5 5.26-25.96 7.19-29.43 10.39-31.72 13.59-34.01 17.73-35.13 21.88-36.25 26.25-36.25L26.25-36.25Q29.32-36.25 32.71-35.73 36.09-35.21 39.09-33.88 42.08-32.55 44.3-30.26 46.51-27.97 47.24-24.38L47.24-24.38 42.55-24.38Q41.88-26.72 40-28.23 38.13-29.74 35.73-30.65 33.33-31.56 30.81-31.9 28.28-32.24 26.25-32.24L26.25-32.24Q22.92-32.24 19.66-31.3 16.41-30.36 13.83-28.54 11.25-26.72 9.66-24.01 8.07-21.3 8.07-17.76L8.07-17.76Q8.07-10.31 13.67-6.8 19.27-3.28 26.25-3.28L26.25-3.28Q28.02-3.28 30.7-3.62 33.39-3.96 35.94-4.82 38.49-5.68 40.42-7.24 42.34-8.8 42.55-11.2L42.55-11.2 47.24-11.2Q46.93-7.6 44.69-5.26 42.45-2.92 39.3-1.59 36.15-0.26 32.6 0.26 29.06 0.78 26.25 0.78ZM75.05 0.78L75.05 0.78Q66.3 0.78 59.95-3.52 53.59-7.81 53.59-17.29L53.59-17.29 53.59-18.18Q53.59-27.66 59.95-31.95 66.3-36.25 75.05-36.25L75.05-36.25Q83.75-36.25 90.1-31.9 96.46-27.55 96.46-18.18L96.46-18.18 96.46-17.29Q96.46-7.92 90.1-3.57 83.75 0.78 75.05 0.78ZM75.05-3.28L75.05-3.28Q81.92-3.28 86.82-6.56 91.72-9.84 91.72-17.29L91.72-17.29 91.72-18.18Q91.72-25.63 86.82-28.93 81.92-32.24 75.05-32.24L75.05-32.24Q68.07-32.24 63.2-28.96 58.33-25.68 58.33-18.18L58.33-18.18 58.33-17.29Q58.33-9.79 63.23-6.54 68.12-3.28 75.05-3.28ZM109.58 0L105.15 0 105.15-35.57 111.25-35.57 123.8-8.02 124.94-4.95 125.15-4.95 126.25-8.02 138.8-35.57 144.89-35.57 144.89 0 140.36 0 140.36-26.3 140.57-29.64 140.36-29.64 139.16-26.3 127.13 0 122.86 0 110.78-26.3 109.63-29.64 109.42-29.64 109.58-26.3 109.58 0ZM160.36 0L155.67 0 155.67-35.57 182.6-35.57Q185.2-35.57 187.86-35.03 190.51-34.48 192.65-33.23 194.78-31.98 196.16-29.9 197.54-27.81 197.54-24.74L197.54-24.74Q197.54-21.67 196.19-19.58 194.84-17.5 192.67-16.25 190.51-15 187.86-14.45 185.2-13.91 182.6-13.91L182.6-13.91 160.36-13.91 160.36 0ZM160.36-31.67L160.36-17.76 182.6-17.76Q186.14-17.76 189.5-19.09 192.86-20.42 192.86-24.74L192.86-24.74Q192.86-29.06 189.45-30.36 186.03-31.67 182.6-31.67L182.6-31.67 160.36-31.67ZM225.04 0.78L225.04 0.78Q221.29 0.78 217.7-0.23 214.1-1.25 211.29-3.31 208.48-5.36 206.76-8.49 205.04-11.61 205.04-15.83L205.04-15.83 205.04-35.57 209.73-35.57 209.73-15.83Q209.73-9.01 214.39-6.15 219.05-3.28 225.04-3.28L225.04-3.28Q230.93-3.28 235.64-6.2 240.35-9.11 240.35-15.83L240.35-15.83 240.35-35.57 244.94-35.57 244.94-15.83Q244.94-11.61 243.25-8.49 241.55-5.36 238.74-3.31 235.93-1.25 232.36-0.23 228.79 0.78 225.04 0.78ZM277.38 0L272.7 0 272.7-31.67 252.44-31.67 252.44-35.57 297.54-35.57 297.54-31.67 277.38-31.67 277.38 0ZM347.49 0L305.66 0 305.66-35.57 347.07-35.57 347.07-31.67 310.35-31.67 310.35-20.26 342.64-20.26 342.64-16.41 310.35-16.41 310.35-3.8 347.49-3.8 347.49 0ZM360.35 0L355.66 0 355.66-35.57 383.21-35.57Q388.06-35.57 391.83-33.02 395.61-30.47 395.61-25.1L395.61-25.1Q395.61-19.58 391.91-17.06 388.21-14.53 383.21-14.53L383.21-14.53 360.35-14.53 360.35 0ZM360.35-31.72L360.35-18.33 383.21-18.33Q386.44-18.33 388.65-20 390.87-21.67 390.87-25.1L390.87-25.1Q390.87-28.54 388.63-30.13 386.39-31.72 383.21-31.72L383.21-31.72 360.35-31.72ZM397.59 0L392.01 0 380.24-15.21 385.24-16.09 397.59 0ZM477.37 0L472.69 0 472.69-31.67 452.43-31.67 452.43-35.57 497.53-35.57 497.53-31.67 477.37-31.67 477.37 0ZM547.48 0L505.65 0 505.65-35.57 547.06-35.57 547.06-31.67 510.34-31.67 510.34-20.26 542.63-20.26 542.63-16.41 510.34-16.41 510.34-3.8 547.48-3.8 547.48 0ZM576.22 0.78L576.22 0.78Q571.85 0.78 567.71-0.34 563.57-1.46 560.36-3.78 557.16-6.09 555.23-9.58 553.31-13.07 553.31-17.76L553.31-17.76Q553.31-22.5 555.23-25.96 557.16-29.43 560.36-31.72 563.57-34.01 567.71-35.13 571.85-36.25 576.22-36.25L576.22-36.25Q579.3-36.25 582.68-35.73 586.07-35.21 589.06-33.88 592.06-32.55 594.27-30.26 596.48-27.97 597.21-24.38L597.21-24.38 592.52-24.38Q591.85-26.72 589.97-28.23 588.1-29.74 585.7-30.65 583.31-31.56 580.78-31.9 578.25-32.24 576.22-32.24L576.22-32.24Q572.89-32.24 569.63-31.3 566.38-30.36 563.8-28.54 561.22-26.72 559.63-24.01 558.05-21.3 558.05-17.76L558.05-17.76Q558.05-10.31 563.64-6.8 569.24-3.28 576.22-3.28L576.22-3.28Q577.99-3.28 580.68-3.62 583.36-3.96 585.91-4.82 588.46-5.68 590.39-7.24 592.32-8.8 592.52-11.2L592.52-11.2 597.21-11.2Q596.9-7.6 594.66-5.26 592.42-2.92 589.27-1.59 586.12-0.26 582.58 0.26 579.03 0.78 576.22 0.78ZM610.33 0L605.65 0 605.65-35.57 610.33-35.57 610.33-20.26 639.5-20.26 639.5-35.57 644.29-35.57 644.29 0 639.5 0 639.5-16.41 610.33-16.41 610.33 0ZM660.12 0L655.64 0 655.64-35.57 660.54-35.57 689.81-5.47 690.02-5.47 689.81-8.75 689.81-35.57 694.29-35.57 694.29 0 689.34 0 660.23-29.95 660.02-29.95 660.12-26.61 660.12 0ZM725.02 0.78L725.02 0.78Q716.27 0.78 709.91-3.52 703.56-7.81 703.56-17.29L703.56-17.29 703.56-18.18Q703.56-27.66 709.91-31.95 716.27-36.25 725.02-36.25L725.02-36.25Q733.71-36.25 740.07-31.9 746.42-27.55 746.42-18.18L746.42-18.18 746.42-17.29Q746.42-7.92 740.07-3.57 733.71 0.78 725.02 0.78ZM725.02-3.28L725.02-3.28Q731.89-3.28 736.79-6.56 741.68-9.84 741.68-17.29L741.68-17.29 741.68-18.18Q741.68-25.63 736.79-28.93 731.89-32.24 725.02-32.24L725.02-32.24Q718.04-32.24 713.17-28.96 708.3-25.68 708.3-18.18L708.3-18.18 708.3-17.29Q708.3-9.79 713.19-6.54 718.09-3.28 725.02-3.28ZM797.83 0L755.74 0 755.74-36.3 760.74-36.3 760.74-3.91 797.83-3.91 797.83 0ZM825.01 0.78L825.01 0.78Q816.26 0.78 809.91-3.52 803.55-7.81 803.55-17.29L803.55-17.29 803.55-18.18Q803.55-27.66 809.91-31.95 816.26-36.25 825.01-36.25L825.01-36.25Q833.71-36.25 840.06-31.9 846.42-27.55 846.42-18.18L846.42-18.18 846.42-17.29Q846.42-7.92 840.06-3.57 833.71 0.78 825.01 0.78ZM825.01-3.28L825.01-3.28Q831.89-3.28 836.78-6.56 841.68-9.84 841.68-17.29L841.68-17.29 841.68-18.18Q841.68-25.63 836.78-28.93 831.89-32.24 825.01-32.24L825.01-32.24Q818.03-32.24 813.16-28.96 808.29-25.68 808.29-18.18L808.29-18.18 808.29-17.29Q808.29-9.79 813.19-6.54 818.08-3.28 825.01-3.28ZM876.73 0.78L876.73 0.78Q872.25 0.78 868.03-0.26 863.81-1.3 860.53-3.54 857.25-5.78 855.27-9.3 853.29-12.81 853.29-17.76L853.29-17.76Q853.29-22.4 855.11-25.86 856.94-29.32 859.98-31.64 863.03-33.96 867.01-35.1 871-36.25 875.32-36.25L875.32-36.25Q878.08-36.25 881.47-35.78 884.85-35.31 887.93-34.06 891-32.81 893.34-30.65 895.69-28.49 896.31-25.16L896.31-25.16 891.36-25.16Q890.79-27.34 888.89-28.72 886.99-30.1 884.57-30.89 882.14-31.67 879.64-31.95 877.14-32.24 875.37-32.24L875.37-32.24Q868.55-32.24 863.39-28.59 858.24-24.95 858.24-17.76L858.24-17.76Q858.24-9.84 863.92-6.56 869.59-3.28 876.73-3.28L876.73-3.28Q881.42-3.28 884.96-3.72 888.5-4.17 891.52-5.63L891.52-5.63 891.52-13.91 876.05-13.91 876.05-17.76 896.31-17.76 896.31-3.85Q892.25-1.2 886.86-0.21 881.47 0.78 876.73 0.78ZM946.88 0L903.03 0 903.03-3.85 922.61-3.85 922.61-31.72 903.03-31.72 903.03-35.57 946.88-35.57 946.88-31.72 927.3-31.72 927.3-3.85 946.88-3.85 946.88 0ZM997.45 0L955.63 0 955.63-35.57 997.04-35.57 997.04-31.67 960.32-31.67 960.32-20.26 992.61-20.26 992.61-16.41 960.32-16.41 960.32-3.8 997.45-3.8 997.45 0ZM1025.21 0.78L1025.21 0.78Q1015.84 0.78 1009.35-1.46 1002.87-3.7 1002.87-9.69L1002.87-9.69 1002.87-10 1007.55-10 1007.55-9.69Q1007.55-6.41 1011.96-4.84 1016.36-3.28 1025.21-3.28L1025.21-3.28Q1033.75-3.28 1038.26-4.69 1042.76-6.09 1042.76-8.75L1042.76-8.75Q1042.76-10.68 1040.05-12.01 1037.35-13.33 1033.83-14.19 1030.31-15.05 1027.03-15.55 1023.75-16.04 1022.55-16.25L1022.55-16.25Q1020.16-16.67 1016.98-17.19 1013.8-17.71 1010.97-18.8 1008.13-19.9 1006.15-21.88 1004.17-23.85 1004.17-27.14L1004.17-27.14Q1004.17-31.3 1008.83-33.78 1013.49-36.25 1024.79-36.25L1024.79-36.25Q1037.4-36.25 1041.77-33.36 1046.15-30.47 1046.15-25.99L1046.15-25.99 1046.15-25.68 1041.41-25.68 1041.41-25.99Q1041.41-29.38 1037.53-30.81 1033.65-32.24 1024.79-32.24L1024.79-32.24Q1016.3-32.24 1012.55-31.04 1008.8-29.84 1008.8-26.93L1008.8-26.93Q1008.8-25.57 1010.84-24.51 1012.87-23.44 1015.68-22.63 1018.49-21.82 1021.49-21.28 1024.48-20.73 1026.41-20.42L1026.41-20.42Q1036.88-18.75 1042.06-16.43 1047.24-14.11 1047.24-8.75L1047.24-8.75Q1047.24-3.96 1041.46-1.59 1035.68 0.78 1025.21 0.78ZM1110.31 0L1105.62 0 1105.62-35.57 1132.55-35.57Q1135.15-35.57 1137.81-35.03 1140.47-34.48 1142.6-33.23 1144.74-31.98 1146.12-29.9 1147.5-27.81 1147.5-24.74L1147.5-24.74Q1147.5-21.67 1146.14-19.58 1144.79-17.5 1142.63-16.25 1140.47-15 1137.81-14.45 1135.15-13.91 1132.55-13.91L1132.55-13.91 1110.31-13.91 1110.31 0ZM1110.31-31.67L1110.31-17.76 1132.55-17.76Q1136.09-17.76 1139.45-19.09 1142.81-20.42 1142.81-24.74L1142.81-24.74Q1142.81-29.06 1139.4-30.36 1135.99-31.67 1132.55-31.67L1132.55-31.67 1110.31-31.67ZM1177.08 0.26L1172.6 0.26 1149.94-35.57 1155.25-35.57 1171.71-9.22 1174.94-3.54 1175.15-3.54 1178.48-9.22 1194.89-35.57 1199.94-35.57 1177.08 0.26ZM1227.34 0L1222.65 0 1222.65-31.67 1202.39-31.67 1202.39-35.57 1247.49-35.57 1247.49-31.67 1227.34-31.67 1227.34 0ZM1274.99 0.57L1274.99 0.57Q1273.43 0.57 1272.57-0.36 1271.71-1.3 1271.71-2.55L1271.71-2.55Q1271.71-3.85 1272.57-4.77 1273.43-5.68 1274.99-5.68L1274.99-5.68Q1276.55-5.68 1277.39-4.77 1278.22-3.85 1278.22-2.55L1278.22-2.55Q1278.22-1.3 1277.39-0.36 1276.55 0.57 1274.99 0.57ZM1397.8 0L1355.71 0 1355.71-36.3 1360.71-36.3 1360.71-3.91 1397.8-3.91 1397.8 0ZM1427.33 0L1422.64 0 1422.64-31.67 1402.38-31.67 1402.38-35.57 1447.48-35.57 1447.48-31.67 1427.33-31.67 1427.33 0ZM1475.76 0L1455.6 0 1455.6-35.57 1475.76-35.57Q1483.73-35.57 1490.01-31.17 1496.28-26.77 1496.28-18.07L1496.28-18.07 1496.28-17.45Q1496.28-8.75 1490.01-4.38 1483.73 0 1475.76 0L1475.76 0ZM1460.29-31.67L1460.29-3.8 1475.76-3.8Q1482.27-3.8 1486.91-7.08 1491.54-10.36 1491.54-17.45L1491.54-17.45 1491.54-18.07Q1491.54-25.21 1486.91-28.44 1482.27-31.67 1475.76-31.67L1475.76-31.67 1460.29-31.67ZM1524.98 0.57L1524.98 0.57Q1523.41 0.57 1522.56-0.36 1521.7-1.3 1521.7-2.55L1521.7-2.55Q1521.7-3.85 1522.56-4.77 1523.41-5.68 1524.98-5.68L1524.98-5.68Q1526.54-5.68 1527.37-4.77 1528.21-3.85 1528.21-2.55L1528.21-2.55Q1528.21-1.3 1527.37-0.36 1526.54 0.57 1524.98 0.57Z" opacity="1" transform="matrix(1,0,0,1,0,0)" fill="#97978d" class="slogan-text-1" data-fill-palette-color="secondary" id="text-1"></path></svg></g></svg></g></svg></g></svg></g><g transform="matrix(1,0,0,1,112.68696424306367,0)"><svg viewBox="0 0 170.14607151387264 136.1825923138308" height="136.1825923138308" width="170.14607151387264"><g><svg xmlns="http://www.w3.org/2000/svg" xmlns:xlink="http://www.w3.org/1999/xlink" version="1.1" x="8" y="0" viewBox="0.5 8.1 127 112.2" enable-background="new 0 0 128 128" xml:space="preserve" height="136.1825923138308" width="154.14607151387264" class="icon-icon-0" data-fill-palette-color="accent" id="icon-0"><g fill="#97978d" data-fill-palette-color="accent"><path d="M9.8 52.7V63.1C9.8 63.5 10.1 63.9 10.6 63.9 11 63.9 11.4 63.6 11.4 63.1V52.7C11.4 52.3 11.1 51.9 10.6 51.9S9.8 52.2 9.8 52.7" fill="#97978d" data-fill-palette-color="accent"></path><path d="M10.6 70.6C11 70.6 11.4 70.3 11.4 69.8V66.4C11.4 66 11.1 65.6 10.6 65.6 10.2 65.6 9.8 65.9 9.8 66.4V69.8C9.8 70.3 10.1 70.6 10.6 70.6" fill="#97978d" data-fill-palette-color="accent"></path><path d="M121.7 47.4C121.7 47 121.4 46.6 120.9 46.6 120.5 46.6 120.1 46.9 120.1 47.4V57.8C120.1 58.2 120.4 58.6 120.9 58.6 121.3 58.6 121.7 58.3 121.7 57.8z" fill="#97978d" data-fill-palette-color="accent"></path><path d="M121 60.5C120.6 60.5 120.2 60.8 120.2 61.3V64.7C120.2 65.1 120.5 65.5 121 65.5 121.4 65.5 121.8 65.2 121.8 64.7V61.3C121.7 60.8 121.4 60.5 121 60.5" fill="#97978d" data-fill-palette-color="accent"></path><path d="M6.6 106C6.3 105.7 5.8 105.7 5.5 106S5.2 106.8 5.5 107.1L7 108.6C7.1 108.7 7.3 108.8 7.5 108.8S7.9 108.7 8 108.6C8.3 108.3 8.3 107.8 8 107.5z" fill="#97978d" data-fill-palette-color="accent"></path><path d="M11.3 110.7C11 110.4 10.5 110.4 10.2 110.7S9.9 111.5 10.2 111.8L11.7 113.3C11.8 113.4 12 113.5 12.2 113.5S12.6 113.4 12.7 113.3C13 113 13 112.5 12.7 112.2z" fill="#97978d" data-fill-palette-color="accent"></path><path d="M7 110.7L5.5 112.2C5.2 112.5 5.2 113 5.5 113.3 5.6 113.4 5.8 113.5 6 113.5S6.4 113.4 6.5 113.3L8 111.8C8.3 111.5 8.3 111 8 110.7S7.2 110.4 7 110.7" fill="#97978d" data-fill-palette-color="accent"></path><path d="M11.7 106L10.2 107.5C9.9 107.8 9.9 108.3 10.2 108.6 10.3 108.7 10.5 108.8 10.7 108.8S11.1 108.7 11.2 108.6L12.7 107.1C13 106.8 13 106.3 12.7 106S12 105.7 11.7 106" fill="#97978d" data-fill-palette-color="accent"></path><path d="M84.2 101.3C83.9 101 83.4 101 83.1 101.3S82.8 102.1 83.1 102.4L84.6 103.9C84.7 104 84.9 104.1 85.1 104.1S85.5 104 85.6 103.9C85.9 103.6 85.9 103.1 85.6 102.8z" fill="#97978d" data-fill-palette-color="accent"></path><path d="M88.9 106C88.6 105.7 88.1 105.7 87.8 106S87.5 106.8 87.8 107.1L89.3 108.6C89.4 108.7 89.6 108.8 89.8 108.8S90.2 108.7 90.3 108.6C90.6 108.3 90.6 107.8 90.3 107.5z" fill="#97978d" data-fill-palette-color="accent"></path><path d="M84.6 106L83.1 107.5C82.8 107.8 82.8 108.3 83.1 108.6 83.2 108.7 83.4 108.8 83.6 108.8S84 108.7 84.1 108.6L85.6 107.1C85.9 106.8 85.9 106.3 85.6 106 85.4 105.7 84.9 105.7 84.6 106" fill="#97978d" data-fill-palette-color="accent"></path><path d="M89.3 101.3L87.8 102.8C87.5 103.1 87.5 103.6 87.8 103.9 87.9 104 88.1 104.1 88.3 104.1S88.7 104 88.8 103.9L90.3 102.4C90.6 102.1 90.6 101.6 90.3 101.3 90.1 101 89.6 101 89.3 101.3" fill="#97978d" data-fill-palette-color="accent"></path><path d="M70.7 19.7C70.8 19.8 71 19.9 71.2 19.9S71.6 19.8 71.7 19.7C72 19.4 72 18.9 71.7 18.6L70.2 17.1C69.9 16.8 69.4 16.8 69.1 17.1S68.8 17.9 69.1 18.2z" fill="#97978d" data-fill-palette-color="accent"></path><path d="M75.4 24.4C75.5 24.5 75.7 24.6 75.9 24.6S76.3 24.5 76.4 24.4C76.7 24.1 76.7 23.6 76.4 23.3L74.9 21.8C74.6 21.5 74.1 21.5 73.8 21.8S73.5 22.6 73.8 22.9z" fill="#97978d" data-fill-palette-color="accent"></path><path d="M69.8 24.6C70 24.6 70.2 24.5 70.3 24.4L71.8 22.9C72.1 22.6 72.1 22.1 71.8 21.8S71 21.5 70.7 21.8L69.2 23.3C68.9 23.6 68.9 24.1 69.2 24.4 69.4 24.5 69.6 24.6 69.8 24.6" fill="#97978d" data-fill-palette-color="accent"></path><path d="M74.5 19.9C74.7 19.9 74.9 19.8 75 19.7L76.5 18.2C76.8 17.9 76.8 17.4 76.5 17.1S75.7 16.8 75.4 17.1L74 18.6C73.7 18.9 73.7 19.4 74 19.7 74.1 19.8 74.3 19.9 74.5 19.9" fill="#97978d" data-fill-palette-color="accent"></path><path d="M3.5 37.8C3.7 38 3.8 38.1 4 38.1S4.4 38 4.5 37.9C4.8 37.6 4.8 37.1 4.5 36.8L3 35.3C2.8 35 2.3 35 2 35.3S1.7 36.1 2 36.4z" fill="#97978d" data-fill-palette-color="accent"></path><path d="M7.8 40C7.5 39.7 7 39.7 6.7 40S6.4 40.8 6.7 41.1L8.2 42.6C8.3 42.7 8.5 42.8 8.7 42.8S9.1 42.7 9.2 42.6C9.5 42.3 9.5 41.8 9.2 41.5z" fill="#97978d" data-fill-palette-color="accent"></path><path d="M2 42.6C2.1 42.7 2.3 42.8 2.5 42.8S2.9 42.7 3 42.6L4.5 41.1C4.8 40.8 4.8 40.3 4.5 40S3.7 39.7 3.4 40L2 41.5C1.8 41.8 1.8 42.3 2 42.6" fill="#97978d" data-fill-palette-color="accent"></path><path d="M8.2 35.3L6.7 36.8C6.4 37.1 6.4 37.6 6.7 37.9 6.8 38 7 38.1 7.2 38.1S7.6 38 7.7 37.9L9.2 36.4C9.5 36.1 9.5 35.6 9.2 35.3 9 35 8.5 35 8.2 35.3" fill="#97978d" data-fill-palette-color="accent"></path><path d="M120.4 74.3C118.6 74.3 117.1 75.8 117.1 77.6S118.6 80.9 120.4 80.9 123.7 79.4 123.7 77.6 122.2 74.3 120.4 74.3M120.4 79.4C119.4 79.4 118.6 78.6 118.6 77.6S119.4 75.8 120.4 75.8 122.2 76.6 122.2 77.6 121.4 79.4 120.4 79.4" fill="#97978d" data-fill-palette-color="accent"></path><path d="M86.4 15.9C88.2 15.9 89.7 14.4 89.7 12.6S88.2 9.3 86.4 9.3 83.1 10.8 83.1 12.6C83 14.4 84.5 15.9 86.4 15.9M86.4 10.8C87.4 10.8 88.2 11.6 88.2 12.6S87.4 14.4 86.4 14.4 84.6 13.6 84.6 12.6 85.4 10.8 86.4 10.8" fill="#97978d" data-fill-palette-color="accent"></path><path d="M5.2 78.7C3.4 78.7 2 80.1 2 81.9S3.4 85.1 5.2 85.1 8.4 83.7 8.4 81.9 6.9 78.7 5.2 78.7M5.2 83.6C4.3 83.6 3.5 82.8 3.5 81.9S4.3 80.2 5.2 80.2 6.9 81 6.9 81.9 6.1 83.6 5.2 83.6" fill="#97978d" data-fill-palette-color="accent"></path><path d="M122.5 108.6H111.2C110.8 108.6 110.4 108.9 110.4 109.4 110.4 109.8 110.7 110.2 111.2 110.2H122.5C122.9 110.2 123.3 109.9 123.3 109.4 123.2 108.9 122.9 108.6 122.5 108.6" fill="#97978d" data-fill-palette-color="accent"></path><path d="M103.9 108.6C103.5 108.6 103.1 108.9 103.1 109.4 103.1 109.8 103.4 110.2 103.9 110.2H107.5C107.9 110.2 108.3 109.9 108.3 109.4 108.3 109 108 108.6 107.5 108.6z" fill="#97978d" data-fill-palette-color="accent"></path><path d="M111.7 112.4H103.8C103.4 112.4 103 112.7 103 113.2 103 113.6 103.3 114 103.8 114H111.7C112.1 114 112.5 113.7 112.5 113.2 112.5 112.8 112.1 112.4 111.7 112.4" fill="#97978d" data-fill-palette-color="accent"></path><path d="M117.6 112.4H115.1C114.7 112.4 114.3 112.7 114.3 113.2 114.3 113.6 114.6 114 115.1 114H117.6C118 114 118.4 113.7 118.4 113.2 118.4 112.8 118.1 112.4 117.6 112.4" fill="#97978d" data-fill-palette-color="accent"></path><path d="M8.6 17.2H19.9C20.3 17.2 20.7 16.9 20.7 16.4 20.7 16 20.4 15.6 19.9 15.6H8.6C8.2 15.6 7.8 15.9 7.8 16.4S8.2 17.2 8.6 17.2" fill="#97978d" data-fill-palette-color="accent"></path><path d="M1.3 17.2H4.9C5.3 17.2 5.7 16.9 5.7 16.4 5.7 16 5.4 15.6 4.9 15.6H1.3C0.9 15.6 0.5 15.9 0.5 16.4S0.8 17.2 1.3 17.2" fill="#97978d" data-fill-palette-color="accent"></path><path d="M9.1 19.6H1.3C0.9 19.6 0.5 19.9 0.5 20.4 0.5 20.8 0.8 21.2 1.3 21.2H9.2C9.6 21.2 10 20.9 10 20.4 9.9 19.9 9.5 19.6 9.1 19.6" fill="#97978d" data-fill-palette-color="accent"></path><path d="M15.8 20.3C15.8 19.9 15.5 19.5 15 19.5H12.5C12.1 19.5 11.7 19.8 11.7 20.3 11.7 20.7 12 21.1 12.5 21.1H15C15.5 21.1 15.8 20.7 15.8 20.3" fill="#97978d" data-fill-palette-color="accent"></path><path d="M34.7 108H23.5C23.1 108 22.7 108.3 22.7 108.8 22.7 109.2 23 109.6 23.5 109.6H34.8C35.2 109.6 35.6 109.3 35.6 108.8 35.5 108.3 35.2 108 34.7 108" fill="#97978d" data-fill-palette-color="accent"></path><path d="M42.1 108H38.5C38.1 108 37.7 108.3 37.7 108.8 37.7 109.2 38 109.6 38.5 109.6H42.1C42.5 109.6 42.9 109.3 42.9 108.8 42.8 108.3 42.5 108 42.1 108" fill="#97978d" data-fill-palette-color="accent"></path><path d="M42.1 104.1H34.2C33.8 104.1 33.4 104.4 33.4 104.9 33.4 105.3 33.7 105.7 34.2 105.7H42.1C42.5 105.7 42.9 105.4 42.9 104.9 42.8 104.5 42.5 104.1 42.1 104.1" fill="#97978d" data-fill-palette-color="accent"></path><path d="M30.8 105.6C31.2 105.6 31.6 105.3 31.6 104.8 31.6 104.4 31.3 104 30.8 104H28.3C27.9 104 27.5 104.3 27.5 104.8 27.5 105.2 27.8 105.6 28.3 105.6z" fill="#97978d" data-fill-palette-color="accent"></path><path d="M78.2 112.8H73.5L70.1 97H107.3C111 97 113.9 94 113.9 90.4V42C121.8 40.3 127.5 33.4 127.5 25.3 127.5 15.9 119.8 8.2 110.4 8.2S93.3 15.9 93.3 25.3C93.3 26.4 93.4 27.4 93.6 28.4H62.7V19.8C62.8 19.6 62.7 19.3 62.5 19.1L55.2 11.8C55.1 11.7 55.1 11.7 55 11.7H48.5C48.3 9.7 46.6 8.1 44.6 8.1S40.9 9.7 40.7 11.7H39.4C39.2 9.7 37.5 8.1 35.5 8.1S31.8 9.7 31.6 11.7H30.7C29.1 11.7 27.7 13 27.7 14.7V28.6H22.2C18.5 28.6 15.6 31.6 15.6 35.2V90.5C15.6 94.2 18.6 97.1 22.2 97.1H59.4L56 112.9H51.3C49.6 112.9 48.1 114.3 48.1 116.1V117.1C48.1 118.8 49.5 120.3 51.3 120.3H78.4C80.1 120.3 81.6 118.9 81.6 117.1V116.1C81.4 114.2 80 112.8 78.2 112.8M110.4 9.7C119 9.7 126 16.7 126 25.3 126 32.9 120.6 39.4 113.1 40.7 112.2 40.9 111.3 40.9 110.4 40.9 103.2 40.9 96.9 36 95.2 29 94.9 27.8 94.8 26.6 94.8 25.3 94.8 16.7 101.8 9.7 110.4 9.7M55.4 14.1L60.2 18.9H55.4zM44.5 9.5C45.7 9.5 46.7 10.4 46.9 11.6H42C42.3 10.3 43.3 9.5 44.5 9.5M35.4 9.5C36.6 9.5 37.6 10.4 37.8 11.6H32.9C33.2 10.3 34.2 9.5 35.4 9.5M29.1 14.5C29.1 13.7 29.8 13 30.6 13H37.7C37.3 13.8 36.5 14.4 35.5 14.4 35.1 14.4 34.7 14.7 34.7 15.2 34.7 15.6 35 16 35.5 16 37.3 16 38.8 14.8 39.3 13.1H46.9C46.5 13.9 45.7 14.5 44.7 14.5 44.3 14.5 43.9 14.8 43.9 15.3 43.9 15.7 44.2 16.1 44.7 16.1 46.5 16.1 48 14.9 48.5 13.2H54V19.8C54 20.2 54.3 20.6 54.8 20.6H61.4V54C61.4 54.8 60.7 55.5 59.9 55.5H30.5C29.7 55.5 29 54.8 29 54V14.5zM17 35.1C17 32.3 19.3 30 22.1 30H27.6V54C27.6 55.6 28.9 57 30.6 57H59.8C61.4 57 62.8 55.7 62.8 54V29.9H94C96.1 37.3 102.8 42.4 110.5 42.4 111.2 42.4 111.8 42.3 112.5 42.3V87.8H17zM22.1 95.5C19.3 95.5 17 93.2 17 90.4V89.4H112.5V90.4C112.5 93.2 110.2 95.5 107.4 95.5zM60.8 97H68.5L71.9 112.8H57.4zM79.9 116.9C79.9 117.8 79.2 118.5 78.3 118.5H51.2C50.3 118.5 49.6 117.8 49.6 116.9V115.9C49.6 115 50.3 114.3 51.2 114.3H78.2C79.1 114.3 79.8 115 79.8 115.9V116.9z" fill="#97978d" data-fill-palette-color="accent"></path><path d="M83.4 54.1C80.8 56.6 80.8 60.7 83.3 63.3 84.6 64.6 86.3 65.3 87.9 65.3S91.2 64.7 92.4 63.5C95 61 95 56.9 92.5 54.3 90.1 51.6 86 51.6 83.4 54.1M91.4 62.3C89.4 64.2 86.3 64.2 84.4 62.2S82.5 57.1 84.5 55.2 89.6 53.3 91.5 55.3C93.4 57.2 93.4 60.4 91.4 62.3" fill="#97978d" data-fill-palette-color="accent"></path><path d="M104.3 54.5C104.2 54.1 103.8 53.9 103.4 54L99 55C98.5 53.5 97.8 52.2 96.7 51L99.9 47.8C100.2 47.5 100.2 47 99.9 46.7S99.1 46.4 98.8 46.7L95.6 49.9C94.4 48.8 93 48.1 91.5 47.6L92.6 43.3C92.7 42.9 92.5 42.5 92.1 42.4S91.3 42.5 91.2 42.9L90.1 47.2C88.6 46.9 87.1 46.9 85.6 47.2L84.4 43C84.3 42.6 83.9 42.4 83.5 42.5S82.9 43 83 43.4L84.2 47.7C82.8 48.2 81.5 48.9 80.3 50L77.2 46.9C76.9 46.6 76.4 46.6 76.1 46.9S75.8 47.7 76.1 48L79.2 51.1C78.2 52.3 77.4 53.6 76.9 55.1L72.7 54C72.3 53.9 71.9 54.1 71.8 54.5S71.9 55.3 72.3 55.4L76.5 56.5C76.2 58 76.2 59.6 76.5 61.1L72.3 62.2C71.9 62.3 71.7 62.7 71.8 63.1 71.9 63.4 72.2 63.7 72.5 63.7H72.7L76.9 62.6C77.3 63.7 77.8 64.7 78.4 65.6L76.8 67.2C76.2 67 75.6 67.1 75.1 67.5L64.7 77.8C63.7 78.8 63.7 80.5 64.7 81.5L65.2 82C65.7 82.5 66.4 82.8 67 82.8 67.7 82.8 68.3 82.5 68.8 82L79.2 71.6C79.5 71.3 79.7 70.9 79.7 70.5 79.7 70.3 79.7 70.1 79.6 69.9L81.2 68.3C82.1 69 83.2 69.5 84.2 69.8L83.1 74C83 74.4 83.2 74.8 83.6 74.9H83.8C84.1 74.9 84.4 74.7 84.5 74.3L85.6 70.1C86.3 70.2 87.1 70.3 87.9 70.3S89.5 70.2 90.2 70.1L91.3 74.3C91.4 74.6 91.7 74.9 92 74.9H92.2C92.6 74.8 92.8 74.4 92.7 74L91.6 69.8C93 69.3 94.4 68.6 95.5 67.5L98.6 70.6C98.7 70.7 98.9 70.8 99.1 70.8S99.5 70.7 99.6 70.6C99.9 70.3 99.9 69.8 99.6 69.5L96.5 66.4C97.5 65.2 98.3 63.9 98.8 62.5L103.1 63.7H103.3C103.6 63.7 103.9 63.5 104 63.1S103.9 62.3 103.5 62.2L99.4 61C99.7 59.5 99.7 58 99.4 56.5L103.7 55.4C104.1 55.3 104.4 54.9 104.3 54.5M67.8 80.9C67.4 81.3 66.7 81.3 66.2 80.9L65.7 80.4C65.3 80 65.3 79.3 65.7 78.8L76.2 68.4 78.2 70.4zM78.6 68.7L77.9 68 79.3 66.6 80 67.3zM95 66C91 69.9 84.5 69.8 80.6 65.8S76.8 55.3 80.8 51.4 91.3 47.6 95.2 51.6 99.1 62.1 95 66" fill="#97978d" data-fill-palette-color="accent"></path><path d="M110.4 27.4H110.6L112.6 31.4C112.7 31.7 113 31.8 113.3 31.8 113.4 31.8 113.5 31.8 113.6 31.7 114 31.5 114.1 31.1 113.9 30.7L111.9 26.7 112 26.6C112 26.5 112.1 26.5 112.1 26.4 112.2 26.3 112.2 26.2 112.3 26 112.3 25.9 112.4 25.9 112.4 25.8 112.5 25.6 112.5 25.4 112.5 25.2V25.1L120.6 21.4C121 21.2 121.1 20.8 121 20.4 120.8 20 120.4 19.9 120 20L111.9 23.7C111.5 23.3 111 23.1 110.4 23.1 109.2 23.1 108.3 24 108.3 25.2 108.3 26.5 109.2 27.4 110.4 27.4" fill="#97978d" data-fill-palette-color="accent"></path><path d="M110.4 14.2C110.8 14.2 111.2 13.9 111.2 13.4V11.6C111.2 11.2 110.9 10.8 110.4 10.8 110 10.8 109.6 11.1 109.6 11.6V13.4C109.6 13.9 110 14.2 110.4 14.2" fill="#97978d" data-fill-palette-color="accent"></path><path d="M96.7 26.1H98.5C98.9 26.1 99.3 25.8 99.3 25.3 99.3 24.9 99 24.5 98.5 24.5H96.7C96.3 24.5 95.9 24.8 95.9 25.3 96 25.7 96.3 26.1 96.7 26.1" fill="#97978d" data-fill-palette-color="accent"></path><path d="M110.4 36.3C110 36.3 109.6 36.6 109.6 37.1V38.9C109.6 39.3 109.9 39.7 110.4 39.7 110.8 39.7 111.2 39.4 111.2 38.9V37.1C111.1 36.7 110.8 36.3 110.4 36.3" fill="#97978d" data-fill-palette-color="accent"></path><path d="M122.2 26.1H124C124.4 26.1 124.8 25.8 124.8 25.3 124.8 24.9 124.5 24.5 124 24.5H122.2C121.8 24.5 121.4 24.8 121.4 25.3 121.4 25.7 121.8 26.1 122.2 26.1" fill="#97978d" data-fill-palette-color="accent"></path><path d="M58.3 63.1H23.5C23.1 63.1 22.7 63.4 22.7 63.9 22.7 64.3 23 64.7 23.5 64.7H58.4C58.8 64.7 59.2 64.4 59.2 63.9 59.1 63.4 58.7 63.1 58.3 63.1" fill="#97978d" data-fill-palette-color="accent"></path><path d="M58.3 68.9H23.5C23.1 68.9 22.7 69.2 22.7 69.7 22.7 70.1 23 70.5 23.5 70.5H58.4C58.8 70.5 59.2 70.2 59.2 69.7 59.1 69.2 58.7 68.9 58.3 68.9" fill="#97978d" data-fill-palette-color="accent"></path><path d="M58.3 74.6H23.5C23.1 74.6 22.7 74.9 22.7 75.4 22.7 75.8 23 76.2 23.5 76.2H58.4C58.8 76.2 59.2 75.9 59.2 75.4 59.1 75 58.7 74.6 58.3 74.6" fill="#97978d" data-fill-palette-color="accent"></path><path d="M47.8 80.4H23.5C23.1 80.4 22.7 80.7 22.7 81.2 22.7 81.6 23 82 23.5 82H47.8C48.2 82 48.6 81.7 48.6 81.2 48.5 80.7 48.2 80.4 47.8 80.4" fill="#97978d" data-fill-palette-color="accent"></path><path d="M36.3 27.9H54C54.4 27.9 54.8 27.6 54.8 27.1 54.8 26.7 54.5 26.3 54 26.3H36.3C35.9 26.3 35.5 26.6 35.5 27.1S35.9 27.9 36.3 27.9" fill="#97978d" data-fill-palette-color="accent"></path><path d="M36.3 33.7H54C54.4 33.7 54.8 33.4 54.8 32.9 54.8 32.5 54.5 32.1 54 32.1H36.3C35.9 32.1 35.5 32.4 35.5 32.9S35.9 33.7 36.3 33.7" fill="#97978d" data-fill-palette-color="accent"></path><path d="M36.3 39.5H54C54.4 39.5 54.8 39.2 54.8 38.7 54.8 38.3 54.5 37.9 54 37.9H36.3C35.9 37.9 35.5 38.2 35.5 38.7 35.5 39.1 35.9 39.5 36.3 39.5" fill="#97978d" data-fill-palette-color="accent"></path><path d="M36.3 45.2H48.7C49.1 45.2 49.5 44.9 49.5 44.4 49.5 44 49.2 43.6 48.7 43.6H36.3C35.9 43.6 35.5 43.9 35.5 44.4S35.9 45.2 36.3 45.2" fill="#97978d" data-fill-palette-color="accent"></path></g></svg></g></svg></g><g><rect width="109.14678338808955" height="6.487532536437809" y="128.695059777393" x="282.8330357569363" fill="#97978d" data-fill-palette-color="accent"></rect><rect width="109.14678338808955" height="6.487532536437809" y="128.695059777393" x="3.5401808549741247" fill="#97978d" data-fill-palette-color="accent"></rect><rect width="109.14678338808955" height="6.487532536437809" y="115.71999470451738" x="282.8330357569363" fill="#97978d" data-fill-palette-color="accent"></rect><rect width="109.14678338808955" height="6.487532536437809" y="115.71999470451738" x="3.5401808549741247" fill="#97978d" data-fill-palette-color="accent"></rect></g></svg></g><defs></defs></svg><rect width="388.43963829005173" height="247.2" fill="none" stroke="none" visibility="hidden"></rect></g></svg></g></svg>